<?xml version="1.0" encoding="utf-8"?>
<svg xmlns="http://www.w3.org/2000/svg" viewBox="0 0 500 500">
  <defs>
    <path style="fill: none;" id="path-0" d="M 57.968 151.766 C 57.968 151.766 44.795 167.812 79.956 120.599 C 115.117 73.386 153.355 34.814 250.11 36.568 C 365.993 38.669 413.705 99.343 440.666 144.206 C 467.628 189.069 477.227 226.461 477.227 226.461"/>
    <path style="fill: none;" id="path-1" d="M 34.583 226.095 C 34.583 226.095 44.795 167.812 79.956 120.599 C 115.117 73.386 153.355 34.814 250.11 36.568 C 365.993 38.669 413.705 99.343 440.666 144.206 C 467.628 189.069 477.227 226.461 477.227 226.461"/>
    <path style="fill: none;" id="path-2" d="M 151.002 452.349 C 151.002 452.349 206.234 474.73 249.381 475.993 C 329.261 478.331 358.759 456.429 384.676 442.092"/>
  </defs>
  <ellipse style="stroke: rgb(0, 0, 0); stroke-width: 4px; fill: rgb(255, 255, 255);" cx="250" cy="250" rx="246.949" ry="247.446"/>
  <ellipse style="stroke: rgb(0, 0, 0); fill: rgb(255, 255, 255); stroke-width: 2px;" cx="250" cy="250" rx="205.777" ry="206.274"/>
  <g transform="matrix(0.794264, 0, 0, 0.814424, 54.17347, 67.879005)" style="">
    <title>logo</title>
    <g transform="matrix(1.299393, 0, 0, 1.258098, 353.52124, 180.277985)" style="">
      <title>sol</title>
      <path style="stroke: rgb(0, 0, 0); fill: rgb(255, 216, 0); stroke-width: 3px;" d="M -13.088 -12.675 C -13.088 -12.675 -9.698 -11.54 -7.848 -13.13 C -6.422 -14.356 -7.139 -17.391 -7.139 -17.391 C -7.139 -17.391 -3.86 -14.034 -0.479 -14.04 C 2.716 -14.045 6.433 -17.504 6.433 -17.504 C 6.433 -17.504 5.672 -13.662 7.855 -12.505 C 8.564 -12.128 11.986 -13.64 11.986 -13.64 C 11.986 -13.64 10.555 -9.792 11.353 -8.557 C 12.399 -6.936 16.587 -7.398 16.587 -7.398 C 16.587 -7.398 13.669 -3.811 13.893 -1.27 C 14.142 1.542 16.735 3.565 16.735 3.565 C 16.735 3.565 13.705 4.969 13.052 6.369 C 12.476 7.605 14.341 11.804 14.341 11.804 C 14.341 11.804 9.786 10.891 8.725 12.157 C 7.793 13.269 7.636 17.254 7.636 17.254 C 7.636 17.254 3.843 14.061 0.292 13.848 C -2.892 13.657 -7.051 17.112 -7.051 17.112 C -7.051 17.112 -7.111 13.608 -8.282 13.012 C -10.156 12.059 -13.366 12.928 -13.366 12.928 C -13.366 12.928 -10.9 10.387 -11.488 8.302 C -11.746 7.386 -16.362 5.067 -16.362 5.067 C -16.362 5.067 -13.465 3.089 -13.526 0.198 C -13.581 -2.355 -17.628 -5.208 -17.628 -5.208 C -17.628 -5.208 -14.554 -5.561 -13.159 -7.56 C -12.324 -8.758 -13.741 -12.842 -13.741 -12.842 L -13.088 -12.675 Z"/>
      <circle cx="-4" cy="-3" r="1.8" fill="#000000"/>
      <circle cx="4" cy="-3" r="1.8" fill="#000000"/>
      <path d="M -5,3 Q 0,8 5,3" fill="none" stroke="#000000" stroke-width="2" stroke-linecap="round"/>
    </g>
    <path d="M 147.282 236.828 C 129.788 240.138 110.532 250.091 105.673 260.328 C 101.479 269.167 100.135 275.733 108.936 289.945 C 113.806 297.809 108.047 308.748 107.091 316.38 C 105.207 331.427 104.54 343.179 111.1 353.918 C 119.724 368.037 136.967 376.889 152.602 381.139 C 170.664 386.048 191.97 391.618 231.518 388.657 C 270.972 385.703 341.796 369.322 368.457 352.592 C 408.079 327.728 422.934 283.939 422.934 283.939 L 416.963 261.211 C 416.963 261.211 401.739 300.884 363.39 329.065 C 338.53 347.333 301.645 355.578 260.67 362.396 C 196.265 373.113 156.52 363.243 142.218 347.281 C 133.36 337.395 128.647 319.746 127.906 311.192 C 127.034 301.132 131.86 292.003 135.329 284.877 C 137.81 279.781 142.857 270.805 142.857 270.805 C 142.857 270.805 123.8 278.648 122.925 260.623 C 122.447 250.765 139.907 245.155 147.282 236.828 Z" fill="#3b82f6" stroke="#000000" stroke-linejoin="round" style="stroke-width: 4px;">
      <title>agua</title>
    </path>
    <g transform="matrix(1.286618, 0, 0, 1.162018, -17.400099, 49.122543)" style="">
      <title>tren</title>
      <path d="M 159.286 130.209 C 155.58 128.53 136.793 117.799 135.914 118.257 C 135.092 118.686 135.338 120.171 132.661 125.858 C 131.82 127.646 139.353 129.213 140.841 131.055 C 141.479 131.845 139.782 135.377 138.355 134.382 C 138.078 134.189 132.682 131.674 132.169 132.633 C 130.56 135.639 128.143 138.13 130.242 139.238 C 132.352 140.352 138.98 144.651 139.065 144.904 C 139.493 146.185 138.407 145.881 137.782 148.058 C 137.373 149.483 132.95 145.171 132.468 146.548 C 131.795 148.47 128.36 153.274 130.016 154.091 C 134.678 156.39 134.237 156.643 134.264 156.739 C 134.608 157.967 131.629 162.37 133.296 163.417 C 136.948 165.71 144.963 167.237 145.716 164.547 C 148.862 153.312 171.398 135.695 159.286 130.209 Z" fill="#ef4444" stroke="#000000" stroke-width="2.5" stroke-linejoin="round" style=""/>
      <path d="M 220.44 252.952 C 220.44 252.952 221.083 253.244 202.411 255.3 C 186.996 256.998 169.94 256.463 162.568 253.41 C 157.28 251.22 152.593 248.56 148.364 245.362 C 144.069 242.114 140.248 238.312 136.752 233.885 C 126.722 221.183 134.679 194.663 137.534 182.398 C 140.553 169.428 154.551 125.983 169.668 116.342 C 185.7 106.118 213.893 105.806 235.1 105.669 C 251.241 105.564 263.253 104.696 263.253 104.696 L 261.571 123.136 C 261.571 123.136 240.128 122.258 229.404 122.39 C 219.134 122.516 211.499 122.732 202.619 123.767 C 193.976 124.775 181.589 126.637 177.723 129.502 C 172.847 133.116 156.343 177.75 154.376 188.792 C 152.354 200.141 149.561 210.475 154.171 221.43 C 157.219 228.672 169.786 232.511 179.016 234.286 C 195.757 237.505 223.029 233.869 223.029 233.869 L 220.44 252.952 Z" fill="#f59e0b" stroke="#000000" stroke-width="3" stroke-linejoin="round" style=""/>
      <path style="stroke: rgb(0, 0, 0); fill: rgb(85, 149, 218); stroke-width: 2.45034px;" d="M 183.528 96.344 C 183.844 95.868 164.147 100.442 152.569 113.095 C 151.868 113.862 159.634 115.693 162.549 119.399 C 164.73 122.17 165.611 116.983 174.057 113.49 C 185.109 108.919 184.137 110.078 184.795 109.745 C 185.449 109.413 177.201 105.91 183.528 96.344 Z"/>
      <path style="stroke: rgb(0, 0, 0); fill: rgb(255, 178, 0); stroke-width: 2.45034px;" d="M 189.231 108.916 C 189.231 108.916 192.432 106.36 197.54 103.733 C 199.249 102.854 200.706 102.239 200.711 100.388 C 200.717 97.304 200.389 99.159 199.873 88.83 C 199.676 84.905 201.043 88.1 211.976 87.305 C 213.289 87.209 212.242 95.033 212.266 96.217 C 212.335 99.591 212.215 99.312 212.052 102.683 C 211.983 104.1 212.178 105.782 212.178 105.782 L 203.47 106.58 L 189.231 108.916 Z"/>
      <g stroke="#000000" stroke-width="2.5" style="">
        <path style="transform-origin: 223.321px 239.885px 0px;" d=""/>
        <line x1="209.126" y1="234.807" x2="205.014" y2="254.402" style="stroke-width: 2.5px; transform-origin: 210.351px 239.264px 0px;"/>
        <line x1="195.06" y1="235.566" x2="190.059" y2="254.815" style="stroke-width: 2.5px; transform-origin: 194.032px 241.992px 0px;"/>
        <line x1="181.395" y1="234.54" x2="175.976" y2="254.665" style="stroke-width: 2.5px; transform-origin: 179.047px 241.115px 0px;"/>
        <line x1="168.222" y1="230.817" x2="160.297" y2="251.893" style="stroke-width: 2.5px; transform-origin: 166.012px 235.854px 0px;"/>
        <line x1="158.562" y1="226.289" x2="146.457" y2="243.825" style="stroke-width: 2.5px;"/>
        <line x1="153.528" y1="218.529" x2="137.257" y2="232.37" style="stroke-width: 2.5px; transform-origin: 149.637px 222.725px 0px;"/>
        <line x1="152.305" y1="210.72" x2="132.063" y2="217.914" style="stroke-width: 2.5px; transform-origin: 144.723px 213.101px 0px;"/>
        <line x1="153.003" y1="201.125" x2="133.973" y2="204.985" style="stroke-width: 2.5px; transform-origin: 144.354px 202.952px 0px;"/>
        <line x1="153.948" y1="193.063" x2="134.92" y2="193.825" style="stroke-width: 2.5px; transform-origin: 145.517px 193.598px 0px;"/>
        <line x1="155.404" y1="182.605" x2="137.647" y2="183.467" style="stroke-width: 2.5px; transform-origin: 148.244px 183.24px 0px;"/>
        <line x1="157.399" y1="173.985" x2="140.071" y2="173.542" style="stroke-width: 2.5px; transform-origin: 150.668px 173.315px 0px;"/>
        <line x1="160.654" y1="166.389" x2="143.707" y2="165.487" style="stroke-width: 2.5px; transform-origin: 154.304px 165.26px 0px;"/>
        <line x1="163.444" y1="158.716" x2="144.465" y2="157.288" style="stroke-width: 2.5px;"/>
        <path style="stroke-width: 2.5px;" d="M 166.869 150.418 L 148.744 148.688"/>
        <line x1="170.77" y1="141.254" x2="153.945" y2="138.812" style="stroke-width: 2.5px; transform-origin: 164.542px 138.585px 0px;"/>
        <line x1="175.32" y1="132.196" x2="158.584" y2="127.361" style="stroke-width: 2.5px; transform-origin: 171.017px 126.853px 0px;"/>
        <line x1="182.16" y1="127.299" x2="169.931" y2="116.781" style="stroke-width: 2.5px; transform-origin: 182.143px 119.177px 0px;"/>
        <line x1="198.856" y1="123.765" x2="193.763" y2="108.546" style="stroke-width: 2.5px; transform-origin: 195.707px 117.01px 0px;"/>
        <line x1="210.328" y1="121.702" x2="208.108" y2="106.456" style="stroke-width: 2.5px; transform-origin: 209.676px 115.862px 0px;"/>
        <path style="stroke-width: 2.5px; transform-origin: 223.912px 118.285px 0px;" d="M 223.593 121.761 C 223.897 116.382 223.306 105.501 223.304 105.542"/>
        <line x1="236.713" y1="121.901" x2="236.099" y2="105.927" style="stroke-width: 2.5px; transform-origin: 238.282px 120.198px 0px;"/>
        <line x1="249.043" y1="123.198" x2="250.224" y2="106.737" style="stroke-width: 2.5px; transform-origin: 251.444px 119.943px 0px;"/>
        <line x1="189.541" y1="124.636" x2="180.459" y2="111.753" style="stroke-width: 2.5px; transform-origin: 191.884px 123.362px 0px;"/>
      </g>
    </g>
    <g style="" transform="matrix(0.711982, 0, 0, 0.891933, 82.342865, 73.604027)">
      <title>barco</title>
      <path style="stroke: rgb(0, 0, 0); fill: rgb(255, 174, 0); stroke-width: 0px;" d="M 186.605 258.698 C 209.73 258.698 232.641 259.008 255.827 259.008 C 266.601 259.008 277.474 258.852 288.298 258.852 C 292.238 258.852 298.168 258.013 301.91 259.008 C 305.658 260.005 310.15 258.558 313.965 259.319 C 318.181 260.16 322.957 259.784 327.381 259.784 C 333.342 259.784 339.128 260.095 345.075 260.095 C 348.381 260.095 351.686 260.095 354.992 260.095 C 355.504 260.095 358.182 260.188 358.493 259.939 C 359.358 259.249 359.12 253.766 358.297 253.11 C 356.983 252.06 352.072 253.807 350.325 253.11 C 348.525 252.391 345.647 253.492 343.909 252.799 C 342.09 252.074 338.658 252.799 336.715 252.799 C 330.297 252.799 322.774 254.144 316.298 253.11 C 308.106 251.803 299.018 252.023 290.437 252.023 C 288.142 252.023 285.43 252.178 283.437 252.178 C 283.065 252.178 281.34 252.368 281.104 252.178 C 278.488 250.089 279.96 248.454 275.27 248.454 C 274.887 248.454 272.993 248.254 272.743 248.454 C 272.386 248.739 271.223 248.425 270.798 248.764 C 270.323 249.143 268.899 250.919 268.076 251.248 C 265.112 252.43 255.306 252.661 251.743 251.713 C 249.476 251.11 245.89 252.558 243.771 251.713 C 242.311 251.13 239.966 251.776 238.327 251.558 C 232.998 250.849 226.845 250.937 221.215 250.937 C 214.9 250.937 209.139 251.558 203.132 251.558 C 201.039 251.558 197.913 252.083 195.938 251.558 C 192.929 250.757 186.966 250.028 184.855 251.713 C 182.763 253.382 185.049 256.699 185.049 258.232 L 186.605 258.698 Z">
        <title>color dorado</title>
      </path>
      <path style="stroke: rgb(0, 0, 0); fill: rgb(239, 68, 68); stroke-width: 0px;" d="M 186.504 238.437 C 186.24 242.079 181.484 247.974 185.71 249.362 C 196.656 252.956 210.906 251.092 222.739 251.278 C 237.813 251.514 252.227 251.989 267.29 251.503 C 270.383 251.403 272.061 248.031 275.155 248.095 C 277.639 248.147 279.217 250.859 281.7 250.945 C 306.863 251.818 332.138 252.367 357.262 250.945 C 359.043 250.844 358.261 247.753 358.261 246.328 C 358.261 240.417 360.38 234.299 357.262 228.939 C 355.814 226.45 350.387 228.925 346.949 228.939 C 336.835 228.978 326.719 229.141 316.605 229.097 C 278.13 228.93 239.64 227.417 201.18 228.305 C 199.673 228.34 201.153 231.023 199.99 231.789 C 198.168 232.988 194.873 232.162 193.247 233.53 C 191.966 234.608 194.025 236.96 192.651 237.963 C 191.078 239.111 188.421 238.386 186.306 238.596 L 186.504 238.437 Z">
        <title>color rojo</title>
      </path>
      <path style="fill: none; stroke: rgb(0, 0, 0); stroke-width: 3.31604px;" d="M 185.084 251.005 L 185.863 238.348 L 193.387 238.348 L 193.352 232.179 L 200.693 231.966 L 200.756 208.019 L 209.617 207.979 L 209.395 196.521 L 215.459 196.482 L 215.354 188.394 L 282.272 188.807 L 282.345 196.086 L 317.105 196.271 L 317.104 202.274 L 346.386 202.559 L 346.421 209.513 L 357.828 209.677 L 358.708 252.699 L 280.791 252.332 L 280.322 248.246 L 269.285 248.164 L 268.877 252.409 L 185.084 251.005 Z"/>
      <path style="fill: none; stroke: rgb(0, 0, 0); stroke-width: 3.31604px;" d="M 358.842 252.428 C 359.278 254.174 358.936 260.234 358.936 260.234 C 358.669 260.502 184.976 258.828 184.976 258.828 L 184.828 249.959"/>
      <path style="fill: none; stroke: rgb(0, 0, 0); stroke-width: 3.31604px;" d="M 201.115 228.514 C 235.073 228.514 357.723 228.249 357.723 228.813 L 201.115 228.514 Z"/>
      <g style="" transform="matrix(1.40453, 0, 0, 1.12116, -80.698364, -53.232506)">
        <title>ventanas grises</title>
        <rect x="206.112" y="242.737" width="10.294" height="4.738" style="fill: rgb(216, 216, 216); stroke: rgb(0, 0, 0); stroke-width: 0px;"/>
        <rect x="219.385" y="242.723" width="10.294" height="4.738" style="fill: rgb(216, 216, 216); stroke: rgb(0, 0, 0); stroke-width: 0px;"/>
        <rect x="232.24" y="242.81" width="10.294" height="4.738" style="fill: rgb(216, 216, 216); stroke: rgb(0, 0, 0); stroke-width: 0px;"/>
        <rect x="245.538" y="242.629" width="10.294" height="4.738" style="fill: rgb(216, 216, 216); stroke: rgb(0, 0, 0); stroke-width: 0px;"/>
        <rect x="258.811" y="242.615" width="10.294" height="4.738" style="fill: rgb(216, 216, 216); stroke: rgb(0, 0, 0); stroke-width: 0px;"/>
        <rect x="271.666" y="242.702" width="10.294" height="4.738" style="fill: rgb(216, 216, 216); stroke: rgb(0, 0, 0); stroke-width: 0px;"/>
        <rect x="285.128" y="242.872" width="10.294" height="4.738" style="fill: rgb(216, 216, 216); stroke: rgb(0, 0, 0); stroke-width: 0px;"/>
        <rect x="298.401" y="242.858" width="10.294" height="4.738" style="fill: rgb(216, 216, 216); stroke: rgb(0, 0, 0); stroke-width: 0px;"/>
        <rect x="206.404" y="235.872" width="10.294" height="4.738" style="fill: rgb(216, 216, 216); stroke: rgb(0, 0, 0); stroke-width: 0px;"/>
        <rect x="219.677" y="235.858" width="10.294" height="4.738" style="fill: rgb(216, 216, 216); stroke: rgb(0, 0, 0); stroke-width: 0px;"/>
        <rect x="232.532" y="235.945" width="10.294" height="4.738" style="fill: rgb(216, 216, 216); stroke: rgb(0, 0, 0); stroke-width: 0px;"/>
        <rect x="245.83" y="235.764" width="10.294" height="4.738" style="fill: rgb(216, 216, 216); stroke: rgb(0, 0, 0); stroke-width: 0px;"/>
        <rect x="259.103" y="235.75" width="10.294" height="4.738" style="fill: rgb(216, 216, 216); stroke: rgb(0, 0, 0); stroke-width: 0px;"/>
        <rect x="271.958" y="235.837" width="10.294" height="4.738" style="fill: rgb(216, 216, 216); stroke: rgb(0, 0, 0); stroke-width: 0px;"/>
        <rect x="285.42" y="236.007" width="10.294" height="4.738" style="fill: rgb(216, 216, 216); stroke: rgb(0, 0, 0); stroke-width: 0px;"/>
        <rect x="219.919" y="229.078" width="10.294" height="4.738" style="fill: rgb(216, 216, 216); stroke: rgb(0, 0, 0); stroke-width: 0px;"/>
        <rect x="232.774" y="229.165" width="10.294" height="4.738" style="fill: rgb(216, 216, 216); stroke: rgb(0, 0, 0); stroke-width: 0px;"/>
        <rect x="246.072" y="228.984" width="10.294" height="4.738" style="fill: rgb(216, 216, 216); stroke: rgb(0, 0, 0); stroke-width: 0px;"/>
        <rect x="259.345" y="228.97" width="10.294" height="4.738" style="fill: rgb(216, 216, 216); stroke: rgb(0, 0, 0); stroke-width: 0px;"/>
      </g>
      <g transform="matrix(1.40453, 0, 0, 1.12116, -80.698364, -53.232506)">
        <title>ventanas amarillas</title>
        <rect x="205.228" y="254.142" width="10.294" height="4.738" style="stroke: rgb(0, 0, 0); stroke-width: 0px; fill: rgb(255, 224, 0);"/>
        <rect x="218.501" y="254.128" width="10.294" height="4.738" style="stroke: rgb(0, 0, 0); stroke-width: 0px; fill: rgb(255, 224, 0);"/>
        <rect x="231.356" y="254.215" width="10.294" height="4.738" style="stroke: rgb(0, 0, 0); stroke-width: 0px; fill: rgb(255, 224, 0);"/>
        <rect x="244.654" y="254.034" width="10.294" height="4.738" style="stroke: rgb(0, 0, 0); stroke-width: 0px; fill: rgb(255, 224, 0);"/>
        <rect x="257.927" y="254.02" width="10.294" height="4.738" style="stroke: rgb(0, 0, 0); stroke-width: 0px; fill: rgb(255, 224, 0);"/>
        <rect x="270.782" y="254.107" width="10.294" height="4.738" style="stroke: rgb(0, 0, 0); stroke-width: 0px; fill: rgb(255, 224, 0);"/>
        <rect x="284.244" y="254.277" width="10.294" height="4.738" style="stroke: rgb(0, 0, 0); stroke-width: 0px; fill: rgb(255, 224, 0);"/>
        <rect x="297.517" y="254.263" width="10.294" height="4.738" style="stroke: rgb(0, 0, 0); stroke-width: 0px; fill: rgb(255, 224, 0);"/>
      </g>
    </g>
    <g style="" transform="matrix(1.25404, 0, 0, 1.290646, -43.520058, -24.127089)">
      <title>bandera</title>
      <rect x="262.566" y="194.857" width="26.183" height="5.157" style="stroke: rgb(0, 0, 0); fill: rgb(0, 158, 255);">
        <title>celeste</title>
      </rect>
      <rect x="262.104" y="184.212" width="26.315" height="5.289" style="stroke: rgb(0, 0, 0); fill: rgb(0, 158, 255);">
        <title>celeste</title>
      </rect>
      <path style="fill: none; stroke: rgb(0, 0, 0); stroke-width: 2px;" d="M 262.277 212.044 C 262.277 202.873 262.271 183.939 262.271 183.939 L 288.47 184.229 L 288.731 200.188 L 261.976 199.898"/>
      <path style="fill: none; stroke: rgb(0, 0, 0); stroke-width: 2px;" d="M 262.584 194.873 C 267.363 194.873 284.822 195.211 288.309 195.211"/>
      <path style="fill: none; stroke: rgb(0, 0, 0); stroke-width: 2px;" d="M 288.286 189.508 C 285.571 189.508 266.445 189.258 262.158 189.258"/>
      <ellipse style="fill: rgb(216, 216, 216); stroke: rgb(0, 0, 0);" cx="275.891" cy="192.23" rx="1.977" ry="1.812"/>
      <ellipse style="stroke: rgb(0, 0, 0); fill: rgb(255, 162, 0);" cx="275.925" cy="192.142" rx="1.885" ry="1.885">
        <title>amarillo</title>
      </ellipse>
    </g>
    <path style="fill: none; stroke: rgb(0, 0, 0); stroke-width: 4px;" d="M 107.555 209.102 C 106.158 269.349 53.482 328.943 78.902 383.582 C 90.653 408.841 147.941 436.278 247.487 434.582 C 355.688 432.738 396.979 402.467 418.185 378.558 C 449.796 342.917 409.253 236.868 405.085 208.163 C 397.023 152.641 429.585 113.503 429.585 113.503 C 415.884 117.982 384.794 136.279 336.623 133.058 C 268.97 128.535 248.665 96.58 248.665 96.58 C 248.665 96.58 214.109 138.9 154.786 137.676 C 98.172 136.508 78.056 120.976 79.079 122.765 C 79.079 122.765 109.108 142.164 107.555 209.102 Z">
      <title>escudo</title>
    </path>
    <g style="" transform="matrix(0.819235, 0, 0, 0.833057, 40.157631, 3.624887)">
      <title>paloma</title>
      <path style="fill: none; stroke: rgb(0, 0, 0); stroke-width: 3.63132px;" d="M 285.165 107.125 C 285.165 107.125 273.537 96.363 260.22 98.287 C 243.338 100.727 236.937 111.633 236.937 111.633 C 236.937 111.633 239.977 99.9 229.274 95.857 C 213.116 89.754 208.991 108.027 208.991 108.027 C 208.991 108.027 209.816 73.983 220.397 62.427 C 238.895 42.225 281.345 51.442 281.345 51.442"/>
      <path style="fill: none; stroke: rgb(0, 0, 0); stroke-width: 3.63132px;" d="M 235.189 52.537 C 235.189 52.537 247.626 32.872 223.395 22.324 C 207.153 15.254 204.579 25.478 174.527 35.139 C 133.072 48.466 107.964 44.179 111.886 45.041 C 119.251 46.66 128.191 47.702 135.705 48.343 C 138.275 48.562 155.247 48.873 153.924 49.147 C 145.501 50.89 129.119 56.716 129.119 56.716 C 129.119 56.716 139.17 57.967 150.643 57.736 C 157.315 57.602 167.321 56.769 167.321 56.769 C 167.321 56.769 162.503 58.852 155.109 62.326 C 154.055 62.821 146.496 65.669 147.66 65.727 C 156.124 66.15 164.613 66.003 173.083 65.727 C 175.93 65.634 181.558 64.622 181.558 64.622 C 181.558 64.622 177.01 68.122 174.509 69.73 C 173.529 70.36 166.354 73.779 166.354 73.779 C 166.354 73.779 203.278 66.166 220.35 63.096"/>
      <path style="fill: none; stroke: rgb(0, 0, 0); stroke-width: 3.63132px;" d="M 137.105 93.086 C 133.919 93.651 111.866 100.334 112.448 100.363 C 116.68 100.577 120.539 103.06 129.05 102.581 C 138.588 102.045 158.198 94.496 155.292 95.813 C 146.011 100.021 127.832 103.955 127.832 103.955 C 127.832 103.955 145.458 106.587 152.33 106.639 C 160.176 106.698 172.243 104.662 172.243 104.662 C 172.243 104.662 167.311 105.006 164.716 105.786 C 162.121 106.566 150.755 106.911 150.755 106.911 C 150.755 106.911 166.629 118.801 193.199 120.567 C 219.769 122.333 237.116 111.549 237.116 111.549"/>
      <path style="fill: none; stroke: rgb(0, 0, 0); stroke-width: 3.63132px;" d="M 86.103 85.382 C 85.559 85.43 95.002 92.001 99.571 92.563 C 104.14 93.126 121.191 89.357 122.64 89.213 C 123.392 89.139 108.597 91.444 106.332 92.045 C 104.067 92.646 97.655 94.056 96.349 94.04 C 95.72 94.032 105.096 98.638 112.623 98.453 C 120.149 98.268 129.359 95.224 129.359 95.224"/>
      <path style="fill: none; stroke: rgb(0, 0, 0); stroke-width: 3.63132px;" d="M 86.266 85.379 C 86.266 85.379 94.292 87.746 96.066 85.265 C 96.066 85.265 90.765 82.679 89.413 81.728 C 84.51 78.279 78.827 72.516 76.195 66.873 C 75.833 66.098 76.855 67.321 80.417 67.878 C 86.026 68.756 86.392 67.629 86.392 67.629 C 86.392 67.629 78.59 61.436 74.789 57.704 C 69.183 52.201 63.873 43.291 63.873 43.291 C 63.873 43.291 72.682 47.653 89.799 48.948 C 106.681 50.225 115.094 46.102 115.094 46.102"/>
      <g transform="matrix(1, 0, 0, 1, 26.157, -47.598)" style="pointer-events: none;">
        <path style="fill: none; stroke: rgb(0, 0, 0); transform-origin: 315.074px 92.868px 0px; stroke-width: 3.63132px;" d="M 375.331 87.207 C 375.331 87.207 387.768 106.872 363.537 117.42 C 347.295 124.49 318.631 96.773 287.481 91.658 C 231.946 82.539 200.527 96.698 204.449 95.836" transform="matrix(-1, 0, 0, -1, 0.00001, -0.000008)"/>
        <path style="fill: none; stroke: rgb(0, 0, 0); transform-origin: 315.231px 152.916px 0px; stroke-width: 3.63132px;" d="M 277.56 166.754 C 274.374 166.189 252.321 159.506 252.903 159.477 C 257.135 159.263 260.994 156.78 269.505 157.259 C 279.043 157.795 298.653 165.344 295.747 164.027 C 286.466 159.819 268.287 155.885 268.287 155.885 C 268.287 155.885 285.913 153.253 292.785 153.201 C 300.631 153.142 312.698 155.178 312.698 155.178 C 312.698 155.178 307.766 154.834 305.171 154.054 C 302.576 153.274 291.21 152.929 291.21 152.929 C 291.21 152.929 303.88 141.256 330.45 139.49 C 357.02 137.724 371.677 151.259 371.677 151.259" transform="matrix(-1, 0, 0, -1, -0.000025, 0.000001)"/>
        <path style="fill: none; stroke: rgb(0, 0, 0); transform-origin: 382.288px 137.912px 0px; stroke-width: 3.63132px;" d="M 360.671 144.45 C 360.127 144.402 369.57 137.831 374.139 137.269 C 378.708 136.706 395.759 140.475 397.208 140.619 C 397.96 140.693 383.165 138.388 380.9 137.787 C 378.635 137.186 372.223 135.776 370.917 135.792 C 370.288 135.8 379.664 131.194 387.191 131.379 C 394.717 131.564 403.927 134.608 403.927 134.608" transform="matrix(-1, 0, 0, -1, 0, 0)"/>
        <path style="fill: none; stroke: rgb(0, 0, 0); transform-origin: 400.523px 110.836px 0px; stroke-width: 3.63132px;" d="M 397.306 90.303 C 397.306 90.303 405.332 87.936 407.106 90.417 C 407.106 90.417 401.805 93.003 400.453 93.954 C 395.55 97.403 389.867 103.166 387.235 108.809 C 386.873 109.584 387.895 108.361 391.457 107.804 C 397.066 106.926 397.432 108.053 397.432 108.053 C 397.432 108.053 389.63 114.246 385.829 117.978 C 380.223 123.481 374.913 132.391 374.913 132.391" transform="matrix(-1, 0, 0, -1, 0, 0)"/>
        <g transform="matrix(1, 0, 0, 1, -47.555809, -11.838389)">
          <path style="fill: none; stroke: rgb(0, 0, 0); transform-origin: 345.036px 145.947px 0px; stroke-width: 3.63132px;" d="M 307.365 159.785 C 304.179 159.22 282.126 152.537 282.708 152.508 C 286.94 152.294 290.799 149.811 299.31 150.29 C 308.848 150.826 328.458 158.375 325.552 157.058 C 316.271 152.85 298.092 148.916 298.092 148.916 C 298.092 148.916 315.718 146.284 322.59 146.232 C 330.436 146.173 342.503 148.209 342.503 148.209" transform="matrix(-1, 0, 0, -1, 0.000021, 0.000012)"/>
          <path style="fill: none; stroke: rgb(0, 0, 0); transform-origin: 412.093px 130.943px 0px; stroke-width: 3.63132px;" d="M 390.476 137.481 C 389.932 137.433 399.375 130.862 403.944 130.3 C 408.513 129.737 425.564 133.506 427.013 133.65 C 427.765 133.724 412.97 131.419 410.705 130.818 C 408.44 130.217 402.028 128.807 400.722 128.823 C 400.093 128.831 409.469 124.225 416.996 124.41 C 424.522 124.595 433.732 127.639 433.732 127.639" transform="matrix(-1, 0, 0, -1, 0, 0)"/>
        </g>
        <g transform="matrix(1, 0, 0, 1, -97.335304, -14.296357)">
          <path style="fill: none; stroke: rgb(0, 0, 0); transform-origin: 345.036px 145.947px 0px; stroke-width: 3.63132px;" d="M 307.365 159.785 C 304.179 159.22 282.126 152.537 282.708 152.508 C 286.94 152.294 290.799 149.811 299.31 150.29 C 308.848 150.826 328.458 158.375 325.552 157.058" transform="matrix(-1, 0, 0, -1, 0.000021, 0.000012)"/>
          <path style="fill: none; stroke: rgb(0, 0, 0); stroke-width: 3.63132px;" d="M 405.762 123.639 C 409.627 124.283 406.715 124.35 418.582 124.966 C 428.219 125.466 429.561 124.405 433.71 124.405 C 434.254 124.453 424.811 131.024 420.242 131.586 C 415.673 132.149 398.622 128.38 397.173 128.236 C 396.421 128.162 411.216 130.467 413.481 131.068 C 415.746 131.669 422.158 133.079 423.464 133.063 C 424.093 133.055 414.717 137.661 407.19 137.476 C 399.664 137.291 390.454 134.247 390.454 134.247"/>
        </g>
        <path style="fill: none; stroke: rgb(0, 0, 0); stroke-width: 3.63132px;" d="M 386.528 112.56 C 384.449 113.079 386.744 113.671 376.72 114.06 C 368.608 114.374 365.086 112.74 364.604 112.74"/>
      </g>
      <ellipse style="fill: rgb(216, 216, 216); stroke: rgb(0, 0, 0); stroke-width: 3.63132px;" cx="247.904" cy="68.572" rx="2.436" ry="2.357"/>
    </g>
  </g>
  <text style="font-family: &quot;Arial&quot;, sans-serif; font-size: 28px; font-weight: 700; white-space: pre;"><textPath href="#path-0">CRIO. INSP. VICTORIANO E. TARET.</textPath></text>
  <text style="font-family: &quot;Arial&quot;, sans-serif; font-size: 28px; font-weight: 700; white-space: pre;" transform="matrix(1, 0, 0, 1, -8.505316, 7.897789)"><textPath href="#path-2">E  P  P     N°   3  3</textPath></text>
</svg>